Coordinates
version=1
nRows=9
nColumns=36
inDegrees=yes

Units are S.I. units (second, meters, Newtons, ...)
If the header above contains a line with 'inDegrees', this indicates whether rotational values are in degrees (yes) or radians (no).

endheader
time	pelvis_tilt	pelvis_list	pelvis_rotation	pelvis_tx	pelvis_ty	pelvis_tz	hip_flexion_r	hip_adduction_r	hip_rotation_r	knee_angle_r	knee_angle_r_beta	ankle_angle_r	subtalar_angle_r	mtp_angle_r	hip_flexion_l	hip_adduction_l	hip_rotation_l	knee_angle_l	knee_angle_l_beta	ankle_angle_l	subtalar_angle_l	mtp_angle_l	lumbar_extension	lumbar_bending	lumbar_rotation	arm_flex_r	arm_add_r	arm_rot_r	elbow_flex_r	pro_sup_r	arm_flex_l	arm_add_l	arm_rot_l	elbow_flex_l	pro_sup_l
      0.67000000	     -1.40218856	      0.35806269	      2.55188943	      0.78887985	      0.93809119	     -0.20254925	     -1.76925164	     -3.09284332	     -5.32646374	     46.07099594	      0.80409057	      1.15023434	     -7.05689983	     -6.92585172	     23.94351925	     -2.13854394	     -5.51297247	     21.95068509	      0.38311173	      3.45804239	     -5.74158507	     -6.92585172	     -6.50878041	    -12.64324613	      5.34634871	      4.23958040	    -10.16027959	     -7.28347515	     51.64479477	    107.81588963	     -6.97325128	    -18.02181923	     17.51858304	     36.44936476	    108.02324273
      0.68000000	     -1.32609096	      0.90477937	      2.64748361	      0.79980557	      0.93652615	     -0.20449646	      0.17083468	     -4.02504279	     -5.47437686	     50.53939009	      0.88207876	      0.93882654	     -8.34171188	     -6.93286634	     23.97087680	     -1.63826965	     -5.72553062	     23.74490163	      0.41442671	      4.71553243	     -5.97357821	     -6.93286634	     -6.87369874	    -13.63786908	      4.50759546	      3.96234284	    -10.03938095	     -7.23858011	     51.83752120	    107.84902457	     -6.35301545	    -18.25290619	     17.26934676	     36.27338078	    107.99785327
      0.69000000	     -1.35515411	      1.24437636	      2.69217689	      0.81046723	      0.93466698	     -0.20609575	      2.27488523	     -4.63034618	     -5.43155287	     54.79098624	      0.95628311	      1.07864134	     -9.64213320	     -6.95041430	     24.19142441	     -1.46938793	     -6.15876935	     25.67517726	      0.44811638	      6.38052125	     -5.37434040	     -6.95041430	     -7.09731299	    -14.38692213	      3.79111198	      3.64309265	     -9.92885915	     -7.23478654	     52.02224796	    107.89801982	     -5.62460675	    -18.38007532	     16.78384375	     35.99331713	    107.99337733
      0.70000000	     -1.14146536	      1.76759371	      2.76868033	      0.82103343	      0.93317567	     -0.20777448	      4.06103096	     -5.48568288	     -5.55636247	     58.73326492	      1.02508885	      1.64593292	    -10.57577392	     -6.95667807	     23.95017605	     -1.03436333	     -6.52990130	     27.21490107	      0.47498963	      7.65520048	     -5.46913496	     -6.95667807	     -7.67544997	    -15.29247639	      2.88175624	      3.44537266	     -9.82770078	     -7.13331644	     52.21635269	    107.92720069	     -4.77969129	    -18.55406386	     16.42287523	     35.51271064	    107.93600579
      0.71000000	     -1.19372812	      2.07316691	      2.69082797	      0.83124593	      0.93133477	     -0.20910644	      6.27540090	     -6.02188572	     -5.42635104	     62.49863592	      1.09080697	      2.66470354	    -11.15072093	     -6.96539627	     23.97840844	     -0.88239630	     -6.92444506	     28.68550348	      0.50065648	      9.14820553	     -5.13184998	     -6.96539627	     -7.88719926	    -15.94566255	      2.26495616	      3.17030461	     -9.75206568	     -7.02511850	     52.35978946	    107.95054025	     -3.78332763	    -18.50357373	     15.83741847	     34.86352752	    107.84233376
      0.72000000	     -1.16768469	      2.34134669	      2.60594063	      0.84130690	      0.92980539	     -0.21040960	      8.38075033	     -6.47566830	     -5.30622136	     65.83426954	      1.14902476	      3.79543593	    -11.38459168	     -6.97323362	     23.82877431	     -0.75908579	     -7.35821993	     29.97105339	      0.52309356	     10.54603143	     -4.83737877	     -6.97323362	     -8.21003015	    -16.51793443	      1.60516424	      2.97409424	     -9.71412256	     -6.95600654	     52.43890932	    107.95759525	     -2.68326186	    -18.40363026	     15.17150498	     34.04212740	    107.70550928
      0.73000000	     -1.21298965	      2.44483579	      2.43400731	      0.85118662	      0.92844263	     -0.21151458	     10.58568862	     -6.67363318	     -5.06483031	     68.79346299	      1.20067243	      5.49141927	    -10.46904050	     -6.99254992	     23.70286552	     -0.84996139	     -7.83525323	     31.16327882	      0.54390182	     12.17597983	     -3.92548371	     -6.99254992	     -8.41737444	    -16.88632108	      1.11511086	      2.72471318	     -9.67816458	     -6.98276317	     52.45196204	    107.92872247	     -1.44590052	    -18.09505640	     14.13621530	     32.97762070	    107.48716513
      0.74000000	     -1.18670669	      2.62806349	      2.24635617	      0.86098552	      0.92762249	     -0.21259393	     12.66441877	     -6.89848299	     -4.85638448	     71.25555855	      1.24364411	      6.43439367	    -10.56589354	     -6.99836352	     23.29527744	     -0.71051337	     -8.05215331	     31.90425756	      0.55683434	     13.23042257	     -4.16217486	     -6.99836352	     -8.73254206	    -17.31399784	      0.52859832	      2.59390015	     -9.60204253	     -6.88849108	     52.34913968	    107.91653629	     -0.23944571	    -17.90781324	     13.40657370	     32.06989391	    107.29961552
      0.75000000	     -1.30349899	      2.59350432	      1.98063902	      0.87066654	      0.92698860	     -0.21355938	     14.88528969	     -6.79563386	     -4.54328591	     73.29703508	      1.27927459	      8.10754176	     -9.04710047	     -7.01761794	     22.98912746	     -0.80533011	     -8.22936448	     32.53334602	      0.56781400	     14.31917339	     -3.90135536	     -7.01761794	     -8.79740404	    -17.46688807	      0.17489576	      2.35613722	     -9.55596191	     -6.97991626	     52.19268109	    107.84789912	      1.14987629	    -17.34179831	     11.89836404	     30.76792182	    106.91490652
